<svg id="2974acaf-0bcb-4e05-8428-11d23ebf059c" data-name="圖層 1" xmlns="http://www.w3.org/2000/svg" viewBox="0 0 50 50"><title>brand-logo</title><path d="M48.24,34.76a46.81,46.81,0,0,0-.54-6.32,26.7,26.7,0,0,0-2.08-5.3c-.21-.45-.84-.7-1.47-1C45.69,33.76,42,42.63,31.4,47.86a20.43,20.43,0,0,1-16.26.82l0-.56a10,10,0,0,1,1.43-.1,16.77,16.77,0,0,0,10-2.3c.51-.3.8-1,1.19-1.46A6.41,6.41,0,0,0,26,44c-8.24,1.21-15.21-1.25-20.62-7.53C.29,30.63-1.07,23.78.81,16.28A2.69,2.69,0,0,1,1.68,15c.07,4.66.33,9.2,3.56,12.82l.66-.06a11.41,11.41,0,0,0,0-1.79A21.19,21.19,0,0,1,10.74,8C16.82.94,24.57-1.35,33.64.78A8.13,8.13,0,0,1,35,1.35l-.05.49A6.06,6.06,0,0,1,33.57,2a15.68,15.68,0,0,0-9.87,2.09,6.59,6.59,0,0,0-1.38,1.55,7.3,7.3,0,0,0,1.91.23,22.12,22.12,0,0,1,25,16.25,21.57,21.57,0,0,1,0,11.36,13.72,13.72,0,0,1-.58,1.48ZM25,29.95a5.22,5.22,0,0,0,5.15-5A5,5,0,0,0,25,20a4.72,4.72,0,0,0-5,4.91A4.92,4.92,0,0,0,25,29.95Z" style="fill:#fff"/></svg>