<svg xmlns="http://www.w3.org/2000/svg" viewBox="0 0 50 50"><path d="M4.5,21.76v-2.3c0-.12.05-.25.07-.37.11-.82.17-1.64.33-2.45a20.24,20.24,0,0,1,8.63-13A19.65,19.65,0,0,1,22.37.28C23.08.19,23.8.14,24.51.07h1a3,3,0,0,0,.31,0,19.88,19.88,0,0,1,4.47.67A20.54,20.54,0,0,1,45,16c.21.92.33,1.87.49,2.81v3.7c0,.3-.09.59-.13.89a20.07,20.07,0,0,1-4.68,10.53c-.66.78-1.45,1.45-2.09,2.24Q33.76,42.06,29,48a4.42,4.42,0,0,1-1.79,1.39c-.52.21-1.08.33-1.62.49H24.44l-.26-.07a4.71,4.71,0,0,1-2.92-1.62c-2.69-3.31-5.35-6.64-8-10a30.08,30.08,0,0,0-2.28-2.72A20.52,20.52,0,0,1,4.7,23.41C4.63,22.86,4.57,22.31,4.5,21.76Z" style="fill:#ffa700"/><circle cx="25" cy="19.5" r="9.5" style="fill:#fff"/></svg>